# xmcd
#
# Track frame offsets:
#	150
#	10814
#	21758
#	33659
#	43621
#	54614
#	67048
#	83692
#	95110
#	105766
#	116935
#	125512
#
# Disc length: 1841 seconds
#
# Revision: 0
# Processed by: cddbd v1.5.2PL0 Copyright (c) Steve Scherf et al.
# Submitted via: EZCDAudioConverter 1.5.4.1
#
DISCID=9d072f0c
DTITLE=Carla Thomas - Gee Whiz
DYEAR=1961
DGENRE=Soul
TTITLE0=Gee Whiz, Look At His Eyes
TTITLE1=Dance With Me
TTITLE2=A Lovely Way To Spend An Evening
TTITLE3=Your Love
TTITLE4=Fools Fall In Love
TTITLE5=To The Aisle
TTITLE6=The Masquerade Is Over
TTITLE7=A Love Of My Own
TTITLE8=Promises
TTITLE9=It Ain't Me
TTITLE10=For You
TTITLE11=The Love We Shared
EXTD=
EXTT0=
EXTT1=
EXTT2=
EXTT3=
EXTT4=
EXTT5=
EXTT6=
EXTT7=
EXTT8=
EXTT9=
EXTT10=
EXTT11=
PLAYORDER=
